<svg xmlns="http://www.w3.org/2000/svg" xmlns:xlink="http://www.w3.org/1999/xlink" contentStyleType="text/css" data-diagram-type="CLASS" height="406px" preserveAspectRatio="none" style="width:429px;height:406px;background:#FFFFFF;" version="1.1" viewBox="0 0 429 406" width="429px" zoomAndPan="magnify"><?plantuml 1.2026.3beta4?><defs/><g><!--class property--><g class="entity" data-qualified-name="property" data-source-line="3" id="ent0002"><rect fill="#F1F1F1" height="178.375" rx="2.5" ry="2.5" style="stroke:#181818;stroke-width:0.5;" width="213.3594" x="7" y="7"/><ellipse cx="79.5327" cy="23" fill="#ADD1B2" rx="11" ry="11" style="stroke:#181818;stroke-width:1;"/><path d="M83.6421,29 L75.9233,29 L75.9233,16.6094 L83.6421,16.6094 L83.6421,18.7656 L78.3765,18.7656 L78.3765,21.4375 L83.1421,21.4375 L83.1421,23.5938 L78.3765,23.5938 L78.3765,26.8438 L83.6421,26.8438 L83.6421,29 Z " fill="#000000"/><text fill="#000000" font-family="sans-serif" font-size="14" lengthAdjust="spacing" textLength="59.7939" x="100.0327" y="27.8467">Property</text><line style="stroke:#181818;stroke-width:0.5;" x1="8" x2="219.3594" y1="39" y2="39"/><g data-visibility-modifier="IE_MANDATORY"><ellipse cx="18" cy="52.6484" fill="#000000" rx="3" ry="3" style="stroke:#000000;stroke-width:1;"/></g><text fill="#000000" font-family="sans-serif" font-size="14" lengthAdjust="spacing" textLength="84.0889" x="27" y="55.9951">Id : int &#171;PK&#187;</text><line style="stroke:#181818;stroke-width:1;" x1="8" x2="219.3594" y1="63.2969" y2="63.2969"/><text fill="#000000" font-family="sans-serif" font-size="14" lengthAdjust="spacing" textLength="117.3184" x="13" y="80.292">Name : nvarchar</text><text fill="#000000" font-family="sans-serif" font-size="14" lengthAdjust="spacing" textLength="132.3232" x="13" y="96.5889">Address : nvarchar</text><text fill="#000000" font-family="sans-serif" font-size="14" lengthAdjust="spacing" textLength="103.4551" x="13" y="112.8857">City : nvarchar</text><text fill="#000000" font-family="sans-serif" font-size="14" lengthAdjust="spacing" textLength="201.3594" x="13" y="129.1826">MonthlyPrice : decimal(18,2)</text><text fill="#000000" font-family="sans-serif" font-size="14" lengthAdjust="spacing" textLength="107.4951" x="13" y="145.4795">IsAvailable : bit</text><text fill="#000000" font-family="sans-serif" font-size="14" lengthAdjust="spacing" textLength="98.1914" x="13" y="161.7764">IsDeleted : bit</text><text fill="#000000" font-family="sans-serif" font-size="14" lengthAdjust="spacing" textLength="156.502" x="13" y="178.0732">CreatedAt : datetime2</text></g><!--class tenant--><g class="entity" data-qualified-name="tenant" data-source-line="15" id="ent0003"><rect fill="#F1F1F1" height="145.7813" rx="2.5" ry="2.5" style="stroke:#181818;stroke-width:0.5;" width="159.3691" x="255" y="23.3"/><ellipse cx="305.9448" cy="39.3" fill="#ADD1B2" rx="11" ry="11" style="stroke:#181818;stroke-width:1;"/><path d="M310.0542,45.3 L302.3354,45.3 L302.3354,32.9094 L310.0542,32.9094 L310.0542,35.0656 L304.7886,35.0656 L304.7886,37.7375 L309.5542,37.7375 L309.5542,39.8938 L304.7886,39.8938 L304.7886,43.1438 L310.0542,43.1438 L310.0542,45.3 Z " fill="#000000"/><text fill="#000000" font-family="sans-serif" font-size="14" lengthAdjust="spacing" textLength="48.9795" x="326.4448" y="44.1467">Tenant</text><line style="stroke:#181818;stroke-width:0.5;" x1="256" x2="413.3691" y1="55.3" y2="55.3"/><g data-visibility-modifier="IE_MANDATORY"><ellipse cx="266" cy="68.9484" fill="#000000" rx="3" ry="3" style="stroke:#000000;stroke-width:1;"/></g><text fill="#000000" font-family="sans-serif" font-size="14" lengthAdjust="spacing" textLength="84.0889" x="275" y="72.2951">Id : int &#171;PK&#187;</text><line style="stroke:#181818;stroke-width:1;" x1="256" x2="413.3691" y1="79.5969" y2="79.5969"/><text fill="#000000" font-family="sans-serif" font-size="14" lengthAdjust="spacing" textLength="142.0234" x="261" y="96.592">FullName : nvarchar</text><text fill="#000000" font-family="sans-serif" font-size="14" lengthAdjust="spacing" textLength="119.3828" x="261" y="112.8889">Phone : nvarchar</text><text fill="#000000" font-family="sans-serif" font-size="14" lengthAdjust="spacing" textLength="114.8574" x="261" y="129.1857">Email : nvarchar</text><text fill="#000000" font-family="sans-serif" font-size="14" lengthAdjust="spacing" textLength="147.3691" x="261" y="145.4826">NationalId : nvarchar</text><text fill="#000000" font-family="sans-serif" font-size="14" lengthAdjust="spacing" textLength="98.1914" x="261" y="161.7795">IsDeleted : bit</text></g><!--class lease--><g class="entity" data-qualified-name="lease" data-source-line="25" id="ent0004"><rect fill="#F1F1F1" height="145.7813" rx="2.5" ry="2.5" style="stroke:#181818;stroke-width:0.5;" width="227.3594" x="110" y="245.38"/><ellipse cx="198.98" cy="261.38" fill="#ADD1B2" rx="11" ry="11" style="stroke:#181818;stroke-width:1;"/><path d="M203.0894,267.38 L195.3706,267.38 L195.3706,254.9894 L203.0894,254.9894 L203.0894,257.1456 L197.8237,257.1456 L197.8237,259.8175 L202.5894,259.8175 L202.5894,261.9738 L197.8237,261.9738 L197.8237,265.2238 L203.0894,265.2238 L203.0894,267.38 Z " fill="#000000"/><text fill="#000000" font-family="sans-serif" font-size="14" lengthAdjust="spacing" textLength="40.8994" x="219.48" y="266.2267">Lease</text><line style="stroke:#181818;stroke-width:0.5;" x1="111" x2="336.3594" y1="277.38" y2="277.38"/><g data-visibility-modifier="IE_MANDATORY"><ellipse cx="121" cy="291.0284" fill="#000000" rx="3" ry="3" style="stroke:#000000;stroke-width:1;"/></g><text fill="#000000" font-family="sans-serif" font-size="14" lengthAdjust="spacing" textLength="84.0889" x="130" y="294.3751">Id : int &#171;PK&#187;</text><line style="stroke:#181818;stroke-width:1;" x1="111" x2="336.3594" y1="301.6769" y2="301.6769"/><g data-visibility-modifier="IE_MANDATORY"><ellipse cx="121" cy="315.3253" fill="#000000" rx="3" ry="3" style="stroke:#000000;stroke-width:1;"/></g><text fill="#000000" font-family="sans-serif" font-size="14" lengthAdjust="spacing" textLength="143.4932" x="130" y="318.672">PropertyId : int &#171;FK&#187;</text><g data-visibility-modifier="IE_MANDATORY"><ellipse cx="121" cy="331.6222" fill="#000000" rx="3" ry="3" style="stroke:#000000;stroke-width:1;"/></g><text fill="#000000" font-family="sans-serif" font-size="14" lengthAdjust="spacing" textLength="132.6787" x="130" y="334.9689">TenantId : int &#171;FK&#187;</text><text fill="#000000" font-family="sans-serif" font-size="14" lengthAdjust="spacing" textLength="153.3848" x="130" y="351.2657">StartDate : datetime2</text><text fill="#000000" font-family="sans-serif" font-size="14" lengthAdjust="spacing" textLength="145.79" x="130" y="367.5626">EndDate : datetime2</text><text fill="#000000" font-family="sans-serif" font-size="14" lengthAdjust="spacing" textLength="201.3594" x="130" y="383.8595">MonthlyPrice : decimal(18,2)</text></g><!--link property to lease--><g class="link" data-entity-1="ent0002" data-entity-2="ent0004" data-link-type="crowfoot" data-source-line="35" id="lnk5"><path codeLine="35" d="M165.18,193.56 C165.18,213.33 165.18,208.04 165.18,227.08" fill="none" id="property-lease" style="stroke:#181818;stroke-width:1;"/><line style="stroke:#181818;stroke-width:1;" x1="161.18" x2="169.18" y1="189.56" y2="189.56"/><line style="stroke:#181818;stroke-width:1;" x1="161.18" x2="169.18" y1="192.56" y2="192.56"/><line style="stroke:#181818;stroke-width:1;" x1="165.18" x2="165.18" y1="193.56" y2="185.56"/><line style="stroke:#181818;stroke-width:1;" x1="165.18" x2="171.18" y1="237.08" y2="245.08"/><line style="stroke:#181818;stroke-width:1;" x1="165.18" x2="159.18" y1="237.08" y2="245.08"/><line style="stroke:#181818;stroke-width:1;" x1="165.18" x2="165.18" y1="237.08" y2="245.08"/><ellipse cx="165.18" cy="231.08" fill="none" rx="4" ry="4" style="stroke:#181818;stroke-width:1;"/><text fill="#000000" font-family="sans-serif" font-size="13" lengthAdjust="spacing" textLength="63.6733" x="101.18" y="211.3869">has many</text></g><!--link tenant to lease--><g class="link" data-entity-1="ent0003" data-entity-2="ent0004" data-link-type="crowfoot" data-source-line="36" id="lnk6"><path codeLine="36" d="M296.18,177.52 C296.18,201.78 296.18,202.76 296.18,227.01" fill="none" id="tenant-lease" style="stroke:#181818;stroke-width:1;"/><line style="stroke:#181818;stroke-width:1;" x1="292.18" x2="300.18" y1="173.52" y2="173.52"/><line style="stroke:#181818;stroke-width:1;" x1="292.18" x2="300.18" y1="176.52" y2="176.52"/><line style="stroke:#181818;stroke-width:1;" x1="296.18" x2="296.18" y1="177.52" y2="169.52"/><line style="stroke:#181818;stroke-width:1;" x1="296.18" x2="302.18" y1="237.01" y2="245.01"/><line style="stroke:#181818;stroke-width:1;" x1="296.18" x2="290.18" y1="237.01" y2="245.01"/><line style="stroke:#181818;stroke-width:1;" x1="296.18" x2="296.18" y1="237.01" y2="245.01"/><ellipse cx="296.18" cy="231.01" fill="none" rx="4" ry="4" style="stroke:#181818;stroke-width:1;"/><text fill="#000000" font-family="sans-serif" font-size="13" lengthAdjust="spacing" textLength="63.6733" x="232.18" y="203.3369">has many</text></g><?plantuml-src VPB1QiCm38RlUGgHqnQMmteQfHHAkqBPLWBR2wYn86QE76oj4Dgz-vmqwv9spSL8duJuVyd-KtE53aimcadgYi0wAMmK4OkM6kBCsOgSr36WXwfBu1019B1HC0ND0hDPzZAV1vQcuTbYIQ70UtHvWIwGXLAEl1_2PJD_GDuiIs7gpEcy6Q0eroMQkyUdXybzA6_yOe_QuCuqrPsMbgt8a90wawKZ3Fb2cWaX4btI9Fh-S_H1Z2oj7sd3SJVhBsEk7MM5vGlqN0PnGxH5qPRHjADx_59rJzqheQTMd6cYSMq9_9wdrx0-DIHmCdfTUHTqiWgh6Mme663r3nqzIX1-_XF7OvhQGoTx2d4HF9J8THnrQxxPy0C0?></g></svg>